<svg xmlns="http://www.w3.org/2000/svg" width="2718" height="2718"><path d="M1463 430.073c0 90.923.254 114.035 1.25 113.622.688-.286 8.45-3.746 17.25-7.69 114.47-51.303 238.415-85.569 354.5-98.004 10.725-1.149 19.931-2.213 20.458-2.364 1.317-.379-45.342-23.817-64.958-32.631-97.745-43.919-199.67-72.3-301.5-83.953-9.625-1.101-19.638-2.254-22.25-2.562l-4.75-.56v114.142m447 46.04c-182.601 11.839-363.064 66.995-528 161.377-46.854 26.811-92.302 56.549-133.5 87.351-17.539 13.114-54.435 42.442-54.472 43.3-.016.353 4.36 2.551 9.722 4.886 72.457 31.546 156.251 77.149 213.75 116.33 9.196 6.267 11.246 7.289 12.5 6.235.825-.694 15.923-14.104 33.551-29.799l32.051-28.538 19.449 6.737c141.412 48.987 267.137 122.359 369.949 215.899 5.775 5.254 19.122 18.05 29.659 28.435 16.726 16.484 19.282 18.647 20.128 17.028.532-1.02 3.699-10.179 7.037-20.354 22.87-69.719 38.143-136.945 46.575-205 17.895-144.447 1.362-282.519-44.565-372.169-7.136-13.93-18.526-32.057-20.334-32.361-.55-.092-6.625.197-13.5.643M746 722.679c-105.433 2.584-202.537 26.673-260.865 64.713l-9.365 6.108.681 12.5c2.396 43.968 10.125 104.158 19.622 152.791 38.416 196.731 130.565 391.276 261.682 552.459 5.704 7.013 10.68 12.744 11.058 12.738.378-.007 2.006-3.27 3.617-7.25 8.362-20.655 36.591-79.034 51.854-107.238 18.811-34.758 42.074-73.736 61.084-102.347l11.525-17.347-29.446-33c-16.196-18.151-29.447-33.59-29.447-34.31 0-1.971 10.082-30.919 18.403-52.838 24.002-63.23 59.32-135.037 93.413-189.923 40.419-65.069 84.886-121.554 139.94-177.763 9.775-9.98 17.541-18.275 17.258-18.434-1.724-.97-49.124-16.176-62.023-19.897C975.996 743.735 908.22 731.066 841 725.509c-19.398-1.604-66.875-3.597-78-3.275-3.575.103-11.225.304-17 .445M422.278 887.198c-24.057 48.16-40.122 86.545-56.416 134.802-24.775 73.374-41.462 150.339-48.351 223-.339 3.575-.853 7.737-1.143 9.25l-.527 2.75h114.58c63.018 0 114.579-.24 114.579-.534 0-.294-4.231-10.082-9.403-21.75-48.983-110.517-80.762-222.12-95.026-333.716-1.371-10.725-2.801-23.325-3.178-28-.377-4.675-.975-9.311-1.33-10.302-.456-1.272-4.513 5.94-13.785 24.5m1525.32 320.108c-4.525 33.663-16.639 100.258-25.229 138.694-17.902 80.102-42.386 159.14-70.101 226.294-5.356 12.977-5.784 13.678-7.231 11.832-.845-1.079-18.37-20.845-38.945-43.925l-37.407-41.962-8.053 9.63c-24.406 29.189-64.777 70.908-91.632 94.693-98.417 87.164-200.926 136.041-310.5 148.051-17.307 1.896-66.445 2.56-78.5 1.06l-6.5-.809 8 5.86c99.586 72.945 203.746 130.065 308.75 169.315 10.862 4.061 19.75 7.662 19.75 8.003 0 .341-4.838 5.109-10.75 10.594-71.066 65.936-163.513 131.989-259.345 185.3-22.687 12.622-79.32 40.822-103.405 51.491-109.387 48.456-217.248 79.684-328 94.962-9.9 1.365-23.4 2.994-30 3.619-14.622 1.384-17.058 1.84-15.895 2.976 1.736 1.695 53.12 26.913 70.319 34.511 91.153 40.268 189.2 68.224 278.576 79.431 117.148 14.688 205.368 13.992 312.376-2.466 52.532-8.079 117.035-24.003 171.124-42.245l14.5-4.89.253-191.524.252-191.523 13.668 3.353c54.251 13.312 117.878 22.824 176.327 26.361 21.185 1.282 75.705 1.287 97 .008 71.461-4.291 135.835-17.471 186.292-38.144 22.909-9.386 56.767-28.241 58.413-32.529 1.624-4.232-4.253-68.311-9.784-106.686-28.65-198.763-111.957-396.858-238.717-567.641-11.716-15.785-41.504-53.449-43.005-54.377-.455-.281-1.625 5.426-2.601 12.683M2174 1462.578c0 .319 3.614 8.667 8.031 18.552 32.735 73.262 59.029 151.378 76.367 226.87 10.567 46.011 17.041 85.531 23.335 142.434l.767 6.934 10.666-20.934c43.692-85.754 74.603-174.438 93.738-268.934 5.634-27.823 9.896-56.968 14.662-100.25l.578-5.25h-114.072c-62.74 0-114.072.26-114.072.578M776.639 1632.682c-30.719 93.036-47.88 182.449-52.744 274.818-1.44 27.351-.619 85.47 1.548 109.5 5.594 62.047 17.407 116.726 34.997 162 5.394 13.883 20.736 44.184 27.341 54l5.719 8.5 11-.187c30.784-.522 93.499-8.006 141.5-16.886 172.541-31.92 339.882-102.727 491-207.757 28.983-20.144 87.479-65.529 86.809-67.352-.165-.45-7.503-4.01-16.305-7.911-69.38-30.75-137.26-67.545-196.724-106.636l-19.72-12.963-2.325 1.846c-1.28 1.015-16.33 14.337-33.446 29.604l-31.12 27.757-18.334-6.38c-100.068-34.824-190.768-80.351-270.545-135.801-46.473-32.301-87.933-66.721-128.453-106.641l-22.663-22.328-7.535 22.817" fill="undefined" fill-rule="evenodd"/></svg>