<svg id="Layer_1" data-name="Layer 1" xmlns="http://www.w3.org/2000/svg" viewBox="0 0 200 200"><defs><style>.cls-1{fill:#fff;}</style></defs><title>R4W MENU</title><path class="cls-1" d="M154.31,100a54.63,54.63,0,0,0-.71-7.06l19.81-6.44-6.07-18.73-19.82,6.44a54.28,54.28,0,0,0-8.23-11.54l12.17-16.74L135.53,34.35l-12.2,16.8a53.73,53.73,0,0,0-13.49-4.47V26H90.15V46.68a53.79,53.79,0,0,0-13.48,4.47l-12.2-16.8L48.54,45.93,60.71,62.67a54.28,54.28,0,0,0-8.23,11.54L32.66,67.77,26.59,86.5,46.4,92.94a54.63,54.63,0,0,0-.71,7.06,55,55,0,0,0,.71,7.07l-19.81,6.44,6.07,18.72,19.82-6.44a54.63,54.63,0,0,0,8.23,11.54L48.54,154.08l15.93,11.57,12.2-16.8a53.79,53.79,0,0,0,13.48,4.47V174h19.69V153.32a53.47,53.47,0,0,0,13.49-4.47l12.2,16.8,15.93-11.57-12.17-16.75a54.63,54.63,0,0,0,8.23-11.54l19.82,6.44,6.07-18.72-19.81-6.44A55,55,0,0,0,154.31,100ZM100,134.62A34.62,34.62,0,1,1,134.62,100,34.66,34.66,0,0,1,100,134.62Z"/></svg>